<svg width="22" height="22" viewBox="0 0 22 22" fill="none" xmlns="http://www.w3.org/2000/svg">
<path fill-rule="evenodd" clip-rule="evenodd" d="M2.0498 11.0368C2.0498 7.42738 2.66122 5.2595 3.96026 3.96045C5.25931 2.66141 7.42719 2.04999 11.0366 2.04999C14.6461 2.04999 16.814 2.66141 18.113 3.96045C19.4121 5.2595 20.0235 7.42738 20.0235 11.0368C20.0235 14.6463 19.4121 16.8142 18.113 18.1132C16.814 19.4123 14.6461 20.0237 11.0366 20.0237C7.42719 20.0237 5.25931 19.4123 3.96026 18.1132C2.66122 16.8142 2.0498 14.6463 2.0498 11.0368ZM11.0366 0.549988C7.34399 0.549988 4.64345 1.15594 2.8996 2.89979C1.15576 4.64364 0.549805 7.34418 0.549805 11.0368C0.549805 14.7295 1.15576 17.43 2.8996 19.1739C4.64345 20.9177 7.34399 21.5237 11.0366 21.5237C14.7293 21.5237 17.4298 20.9177 19.1737 19.1739C20.9175 17.43 21.5235 14.7295 21.5235 11.0368C21.5235 7.34418 20.9175 4.64364 19.1737 2.89979C17.4298 1.15594 14.7293 0.549988 11.0366 0.549988ZM11.0367 6.71262C11.4509 6.71262 11.7867 7.0484 11.7867 7.46262V10.2868H14.6145C15.0287 10.2868 15.3645 10.6226 15.3645 11.0368C15.3645 11.451 15.0287 11.7868 14.6145 11.7868H11.7867V14.611C11.7867 15.0253 11.4509 15.361 11.0367 15.361C10.6225 15.361 10.2867 15.0253 10.2867 14.611V11.7868H7.45868C7.04447 11.7868 6.70868 11.451 6.70868 11.0368C6.70868 10.6226 7.04447 10.2868 7.45868 10.2868H10.2867V7.46262C10.2867 7.0484 10.6225 6.71262 11.0367 6.71262Z" fill="#181818"/>
</svg>
