<svg width="20" height="20" viewBox="0 0 20 20" fill="none" xmlns="http://www.w3.org/2000/svg">
<rect opacity="0.01" width="20" height="20" fill="white"/>
<path fill-rule="evenodd" clip-rule="evenodd" d="M3.40049 9.52622C3.40049 6.12622 6.21809 3.36998 9.69378 3.36998C13.1695 3.36998 15.9871 6.12622 15.9871 9.52622C15.9871 12.9262 13.1695 15.6824 9.69378 15.6824C6.21809 15.6824 3.40049 12.9262 3.40049 9.52622ZM9.69378 2C5.44463 2 2 5.3696 2 9.52622C2 13.6828 5.44463 17.0524 9.69378 17.0524C11.4736 17.0524 13.1122 16.4613 14.4157 15.4687L16.8053 17.8C17.0791 18.0672 17.5224 18.0666 17.7956 17.7987C18.0687 17.5309 18.0681 17.0972 17.7942 16.83L15.4391 14.5321C16.6511 13.202 17.3876 11.4482 17.3876 9.52622C17.3876 5.3696 13.9429 2 9.69378 2Z" fill="#181818"/>
</svg>
