<svg width="16" height="14" viewBox="0 0 16 14" fill="none" xmlns="http://www.w3.org/2000/svg">
<path fill-rule="evenodd" clip-rule="evenodd" d="M7.10938 0.228036C7.39279 0.531336 7.3918 1.02194 7.10717 1.32394L2.48794 6.22496L15.2727 6.22496L15.3714 6.23203C15.7264 6.28335 16 6.60759 16 6.99992C16 7.42792 15.6744 7.77489 15.2727 7.77489L2.48946 7.77489L7.10721 12.6758L7.1778 12.7625C7.38964 13.0654 7.367 13.496 7.10934 13.7717C6.82592 14.075 6.36544 14.076 6.08084 13.774L0.231063 7.56629C0.096981 7.4328 0.0103455 7.24588 0.00103474 7.03738C-0.00865555 6.82604 0.0624275 6.61128 0.214279 6.45016L6.08088 0.225637L6.1626 0.150836C6.44777 -0.0736634 6.85175 -0.0477636 7.10938 0.228036Z" fill="#181818"/>
</svg>
