<svg width="18" height="18" viewBox="0 0 18 18" fill="none" xmlns="http://www.w3.org/2000/svg">
<path fill-rule="evenodd" clip-rule="evenodd" d="M8.19992 2.01559C9.45656 0.341315 11.8325 0.00240412 13.5078 1.25881C15.1823 2.51565 15.52 4.893 14.2636 6.56702L13.0376 8.20035C13.018 8.23907 12.9948 8.27661 12.9678 8.31252C12.9409 8.34842 12.9113 8.38122 12.8796 8.41085L11.5307 10.208C10.0571 12.1713 8.36905 14.4201 7.5115 15.5621C6.48054 16.9363 5.00264 17.3744 3.86218 17.4847C3.28794 17.5402 2.77723 17.5157 2.41023 17.4777C2.22587 17.4586 2.07543 17.4359 1.96856 17.4174C1.91506 17.4081 1.8723 17.3999 1.84146 17.3937L1.80424 17.3859L1.79257 17.3833L1.78852 17.3824L1.78694 17.382C1.78664 17.382 1.78567 17.3817 1.95376 16.6508L1.30264 17.023L1.30148 17.021L1.29941 17.0173L1.29353 17.0068L1.27526 16.9734C1.26033 16.9456 1.2401 16.9071 1.21582 16.8586C1.16734 16.7618 1.10241 16.6246 1.0314 16.4539C0.89006 16.114 0.721024 15.6327 0.612136 15.0667C0.395384 13.9401 0.405745 12.3998 1.44782 11.0107L8.19992 2.01559ZM1.30264 17.023C1.40658 17.2045 1.58187 17.3349 1.78567 17.3817L1.95376 16.6508C1.30295 17.0236 1.3028 17.0233 1.30264 17.023ZM12.2092 6.80531L13.0639 5.66659C13.8235 4.65461 13.619 3.2178 12.6075 2.45865C11.5948 1.69924 10.1589 1.90437 9.3996 2.91602L8.54482 4.05476L12.2092 6.80531ZM7.64433 5.25439L11.3088 8.00497L10.331 9.30758C8.85742 11.2708 7.16924 13.5198 6.31179 14.6618C5.62876 15.5723 4.62779 15.9037 3.71783 15.9917C3.26682 16.0353 2.8594 16.0161 2.56459 15.9856C2.52675 15.9817 2.49092 15.9776 2.45725 15.9735C2.44411 15.9435 2.43044 15.9116 2.41639 15.8778C2.30364 15.6067 2.17011 15.2251 2.08513 14.7834C1.91413 13.8945 1.95077 12.8399 2.64769 11.9109L7.64433 5.25439ZM9.58514 16.5077C9.58514 16.0935 9.92093 15.7577 10.3351 15.7577H16.7121C17.1264 15.7577 17.4621 16.0935 17.4621 16.5077C17.4621 16.9219 17.1264 17.2577 16.7121 17.2577H10.3351C9.92093 17.2577 9.58514 16.9219 9.58514 16.5077Z" fill="#181818"/>
</svg>
