<svg width="16" height="14" viewBox="0 0 16 14" fill="none" xmlns="http://www.w3.org/2000/svg">
<path fill-rule="evenodd" clip-rule="evenodd" d="M8.89062 0.22796C8.60721 0.53126 8.6082 1.02186 8.89283 1.32386L13.5121 6.22488H0.727264L0.628579 6.23195C0.2736 6.28327 0 6.60751 0 6.99985C0 7.42785 0.325607 7.77481 0.727264 7.77481H13.5105L8.89279 12.6757L8.8222 12.7624C8.61036 13.0654 8.633 13.4959 8.89066 13.7716C9.17408 14.0749 9.63456 14.0759 9.91916 13.7739L15.7689 7.56621C15.903 7.43272 15.9897 7.2458 15.999 7.0373C16.0087 6.82596 15.9376 6.6112 15.7857 6.45008L9.91912 0.22556L9.8374 0.15076C9.55223 -0.0737397 9.14825 -0.0478398 8.89062 0.22796Z" fill="#181818"/>
</svg>
