<svg width="22" height="22" viewBox="0 0 22 22" fill="none" xmlns="http://www.w3.org/2000/svg">
<path fill-rule="evenodd" clip-rule="evenodd" d="M2.0498 10.8368C2.0498 7.22737 2.66122 5.05949 3.96026 3.76044C5.25931 2.4614 7.42719 1.84998 11.0366 1.84998C14.6461 1.84998 16.814 2.4614 18.113 3.76044C19.4121 5.05949 20.0235 7.22737 20.0235 10.8368C20.0235 14.4463 19.4121 16.6142 18.113 17.9132C16.814 19.2123 14.6461 19.8237 11.0366 19.8237C7.42719 19.8237 5.25931 19.2123 3.96026 17.9132C2.66122 16.6142 2.0498 14.4463 2.0498 10.8368ZM11.0366 0.349976C7.34399 0.349976 4.64345 0.955928 2.8996 2.69978C1.15576 4.44363 0.549805 7.14417 0.549805 10.8368C0.549805 14.5295 1.15576 17.23 2.8996 18.9739C4.64345 20.7177 7.34399 21.3237 11.0366 21.3237C14.7293 21.3237 17.4298 20.7177 19.1737 18.9739C20.9175 17.23 21.5235 14.5295 21.5235 10.8368C21.5235 7.14417 20.9175 4.44363 19.1737 2.69978C17.4298 0.955928 14.7293 0.349976 11.0366 0.349976ZM7.45868 10.0868C7.04447 10.0868 6.70868 10.4226 6.70868 10.8368C6.70868 11.251 7.04447 11.5868 7.45868 11.5868H14.6145C15.0287 11.5868 15.3645 11.251 15.3645 10.8368C15.3645 10.4226 15.0287 10.0868 14.6145 10.0868H7.45868Z" fill="#181818"/>
</svg>
